<?xml version="1.0" encoding="UTF-8" standalone="no"?>
<!DOCTYPE svg PUBLIC "-//W3C//DTD SVG 1.1//EN"
 "http://www.w3.org/Graphics/SVG/1.1/DTD/svg11.dtd">
<!-- Generated by graphviz version 14.0.0 (0)
 -->
<!-- Pages: 1 -->
<svg width="177pt" height="192pt"
 viewBox="0.00 0.00 177.00 192.00" xmlns="http://www.w3.org/2000/svg" xmlns:xlink="http://www.w3.org/1999/xlink">
<g id="graph0" class="graph" transform="scale(1 1) rotate(0) translate(4 188.02)">
<polygon fill="white" stroke="none" points="-4,4 -4,-188.02 172.59,-188.02 172.59,4 -4,4"/>
<!-- 1 -->
<g id="node1" class="node">
<title>1</title>
<ellipse fill="#deebf7" stroke="#9ecae1" cx="27" cy="-44.81" rx="27" ry="18"/>
<text xml:space="preserve" text-anchor="middle" x="27" y="-39.76" font-family="Times,serif" font-size="14.00">1</text>
</g>
<!-- 2 -->
<g id="node2" class="node">
<title>2</title>
<ellipse fill="#e5f5e0" stroke="#a1d99b" cx="84.57" cy="-92.03" rx="27" ry="18"/>
<text xml:space="preserve" text-anchor="middle" x="84.57" y="-86.98" font-family="Times,serif" font-size="14.00">2</text>
</g>
<!-- 1&#45;&#45;2 -->
<g id="edge1" class="edge">
<title>1&#45;&#45;2</title>
<path fill="none" stroke="black" d="M44.27,-58.97C51.56,-64.95 60.02,-71.89 67.31,-77.87"/>
</g>
<!-- 4 -->
<g id="node3" class="node">
<title>4</title>
<ellipse fill="#fff7bc" stroke="#fec44f" cx="91.97" cy="-18" rx="27" ry="18"/>
<text xml:space="preserve" text-anchor="middle" x="91.97" y="-12.95" font-family="Times,serif" font-size="14.00">4</text>
</g>
<!-- 1&#45;&#45;4 -->
<g id="edge2" class="edge">
<title>1&#45;&#45;4</title>
<path fill="none" stroke="black" d="M50.09,-35.28C56.22,-32.75 62.83,-30.02 68.96,-27.5"/>
</g>
<!-- 2&#45;&#45;4 -->
<g id="edge4" class="edge">
<title>2&#45;&#45;4</title>
<path fill="none" stroke="black" d="M86.4,-73.73C87.53,-62.34 88.99,-47.74 90.13,-36.34"/>
</g>
<!-- 3 -->
<g id="node4" class="node">
<title>3</title>
<ellipse fill="#efedf5" stroke="#bcbddc" cx="76.38" cy="-166.02" rx="27" ry="18"/>
<text xml:space="preserve" text-anchor="middle" x="76.38" y="-160.97" font-family="Times,serif" font-size="14.00">3</text>
</g>
<!-- 2&#45;&#45;3 -->
<g id="edge3" class="edge">
<title>2&#45;&#45;3</title>
<path fill="none" stroke="black" d="M82.54,-110.32C81.28,-121.7 79.67,-136.29 78.41,-147.68"/>
</g>
<!-- 5 -->
<g id="node5" class="node">
<title>5</title>
<ellipse fill="#fee0d2" stroke="#fc9272" cx="141.59" cy="-139.79" rx="27" ry="18"/>
<text xml:space="preserve" text-anchor="middle" x="141.59" y="-134.74" font-family="Times,serif" font-size="14.00">5</text>
</g>
<!-- 2&#45;&#45;5 -->
<g id="edge5" class="edge">
<title>2&#45;&#45;5</title>
<path fill="none" stroke="black" d="M101.68,-106.36C108.89,-112.4 117.28,-119.43 124.49,-125.47"/>
</g>
<!-- 3&#45;&#45;5 -->
<g id="edge6" class="edge">
<title>3&#45;&#45;5</title>
<path fill="none" stroke="black" d="M99.92,-156.55C105.91,-154.14 112.33,-151.56 118.3,-149.16"/>
</g>
</g>
</svg>
